<svg id="Layer_1" enable-background="new 0 0 64 64" fill="white" height="512" viewBox="0 0 64 64" width="512" xmlns="http://www.w3.org/2000/svg"><g><path d="m15.9 43.4-5.1-1.1c-1.4-.3-2.7.8-2.7 2.2v2.1c0 1.7 1.3 2.1 2.9 2.1h5.8c1.4 0 1.9-.6 1.9-1.4v-.3c.1-1.7-1.1-3.2-2.8-3.6zm-5.9 3.3c0-.1 0-.2 0-2.2 0-.2.2-.4.4-.3l5.1 1.1c.7.2 1.2.8 1.3 1.5-6 0-6.5 0-6.8-.1z"/><path d="m35.2 47.7h-12.6c-.5 0-1 .4-1 1s.4 1 1 1h12.6c.5 0 1-.4 1-1s-.5-1-1-1z"/><path d="m35.2 51.6h-12.6c-.5 0-1 .4-1 1s.4 1 1 1h12.6c.5 0 1-.4 1-1s-.5-1-1-1z"/><path d="m61.2 6.4h-3.7v-1.4c0-.5-.4-1-1-1h-2.5c-.5-2.3-2.5-4-4.9-4s-4.5 1.7-4.9 4h-2.6c-.5 0-1 .4-1 1v1.3h-3.7c-1.5 0-2.7 1.2-2.7 2.7v13.8h-17c-2.2 0-4.1 1.3-4.9 3.3l-3.9 8.1c-.9-1.3-2.4-2.1-4-2.1h-1.7c-1.5 0-2.7 1.2-2.7 2.7v1.1c0 1.5 1.2 2.7 2.7 2.7h2.6c-1.1 1.4-1.6 3.2-1.6 5v6c0 2.3.8 4.5 2.4 6.4v4.5c0 2 1.6 3.6 3.6 3.6h3.7c2 0 3.6-1.6 3.6-3.6v-1.8h24v1.8c0 2 1.6 3.6 3.6 3.6h3.7c2 0 3.6-1.6 3.6-3.6v-4.5c1.6-1.8 2.4-4 2.4-6.4v-4h7c1.5 0 2.7-1.2 2.7-2.7v-33.8c0-1.5-1.3-2.7-2.8-2.7zm-18.7-.4h2.5s0 0 0 0c.5 0 1-.4 1-1 0-1.7 1.4-3 3.1-3s3.1 1.4 3.1 3.1c0 .5.4 1 1 1h2.5v2.6h-13.2zm-28.4 20.9c.5-1.3 1.7-2.1 3.1-2.1h16.9v12.2h-25c.6-.8-.4 1 5-10.1zm-12.1 9v-1.1c0-.4.3-.7.7-.7h1.7c2 0 2.7 1.8 2.9 2.1-.1.2-.2.3-.4.5h-4.2c-.4-.1-.7-.4-.7-.8zm13 24.5c0 .9-.7 1.6-1.6 1.6h-3.8c-.9 0-1.6-.7-1.6-1.6v-2.9c1.2.7 2.6 1.1 4 1.1h3zm33.2 1.6h-3.7c-.9 0-1.6-.7-1.6-1.6v-1.8h3c1.4 0 2.8-.4 4-1.1v2.9c0 .9-.8 1.6-1.7 1.6zm4.1-12.5c0 3.6-2.6 7.2-6.4 7.2-8.1 0-25.2 0-33.9 0-3.6 0-6.4-3.5-6.4-7.2v-6c0-1.7.7-3.3 1.9-4.6h26.7v3.9c0 1.5 1.2 2.7 2.7 2.7h2.5c-.2.4-.3.9-.3 1.4.1.1-.6 1.7 2.4 1.7h5.5c1.7 0 2.8-.4 2.8-2.1v-1.1h2.5zm-10.5-3.9h6.1v1.2c-.3.1-6.7.1-6.8.1 0-.6.2-1.1.7-1.3zm20.2-2.8c0 .4-.4.8-.8.8h-24.3c-.4 0-.8-.4-.8-.8 0-4.6 0-14.3 0-19s0 0 0 0v-14.7c0-.4.4-.8.8-.8h3.7v1.3c0 .5.4 1 1 1h15c.5 0 1-.4 1-1v-1.3h3.7c.4 0 .8.4.8.8v33.7z"/><path d="m49.4 3.9c-.4-.2-1 0-1.3.5-.2.4-.1.8.2 1.1.5.5 1.3.3 1.6-.3.2-.5.1-1.1-.5-1.3z"/><path d="m59.2 16.4h-10.8c-.5 0-1 .4-1 1s.4 1 1 1h10.8c.5 0 1-.4 1-1s-.5-1-1-1z"/><path d="m43.8 14.9-2.9 2.9-1.3-1.3c-.4-.4-1-.4-1.4 0s-.4 1 0 1.4l2 2c.4.4 1 .4 1.4 0l3.6-3.6c.4-.4.4-1 0-1.4s-1-.4-1.4 0z"/><path d="m59.2 25.5h-10.8c-.5 0-1 .4-1 1s.4 1 1 1h10.8c.5 0 1-.4 1-1s-.5-1-1-1z"/><path d="m43.8 24-2.9 2.9-1.3-1.3c-.4-.4-1-.4-1.4 0s-.4 1 0 1.4l2 2c.4.4 1 .4 1.4 0l3.6-3.6c.4-.4.4-1 0-1.4s-1-.4-1.4 0z"/><path d="m59.2 34.7h-10.8c-.5 0-1 .4-1 1s.4 1 1 1h10.8c.5 0 1-.4 1-1s-.5-1-1-1z"/><path d="m45.2 33.2c-.4-.4-1-.4-1.4 0l-1.1 1.1-1.1-1.1c-.4-.4-1-.4-1.4 0s-.4 1 0 1.4l1.1 1.1-1.1 1.1c-.4.4-.4 1 0 1.4s1 .4 1.4 0l1.1-1.1 1.1 1.1c.4.4 1 .4 1.4 0s.4-1 0-1.4l-1.1-1.1 1.1-1.1c.4-.4.4-1.1 0-1.4z"/></g></svg>