<svg id="Capa_1" enable-background="new 0 0 512 512" height="512" viewBox="0 0 512 512" width="512" xmlns="http://www.w3.org/2000/svg"><g><g><path d="m149 406.426h33c4.143 0 7.5-3.357 7.5-7.5s-3.357-7.5-7.5-7.5h-33c-4.143 0-7.5 3.357-7.5 7.5s3.357 7.5 7.5 7.5z"/><path d="m92 222.886h-32c-5.79 0-10.5 4.71-10.5 10.5v47c0 5.79 4.71 10.5 10.5 10.5h32c5.79 0 10.5-4.71 10.5-10.5v-47c0-5.79-4.71-10.5-10.5-10.5zm-4.5 53h-23v-38h23z"/><path d="m481 258.5c4.143 0 7.5-3.357 7.5-7.5v-70.114h11c6.893 0 12.5-5.607 12.5-12.5v-73c0-12.406-10.094-22.5-22.5-22.5h-6v-16.5c0-9.649-7.851-17.5-17.5-17.5h-53.533c.06-2.824-.759-5.637-2.436-7.988-2.481-3.478-6.514-5.554-10.785-5.554h-46.246c-4.143 0-7.5 3.357-7.5 7.5s3.357 7.5 7.5 7.5h43.792l-18.813 54.658h-262.771l18.813-54.658h183.979c4.143 0 7.5-3.357 7.5-7.5s-3.357-7.5-7.5-7.5h-185.228c-5.653 0-10.688 3.592-12.528 8.938l-1.585 4.604h-72.659c-9.649 0-17.5 7.851-17.5 17.5v16.5h-6c-12.406 0-22.5 10.094-22.5 22.5v73c0 6.893 5.607 12.5 12.5 12.5h11v263.771h-11c-6.893 0-12.5 5.607-12.5 12.5v17c0 6.893 5.607 12.5 12.5 12.5h487c6.893 0 12.5-5.607 12.5-12.5v-17c0-6.893-5.607-12.5-12.5-12.5h-11v-158.657c0-4.143-3.357-7.5-7.5-7.5s-7.5 3.357-7.5 7.5v158.656h-75v-83h19.5c6.893 0 12.5-5.607 12.5-12.5v-46c0-6.893-5.607-12.5-12.5-12.5h-19.5v-69h75v29.344c0 4.143 3.357 7.5 7.5 7.5zm-73.005-204.614h58.005c1.379 0 2.5 1.121 2.5 2.5v16.5h-67.045zm-364.495 2.5c0-1.379 1.121-2.5 2.5-2.5h67.496l-6.54 19h-63.456zm453.5 403.27v12h-482v-12zm-423.5-44.759v-14.872c0-9.413 7.658-17.071 17.072-17.071h22.928v31.943zm40 15v14.759h-8.364v-14.759zm-23.364 0v14.759h-16.636v-14.759zm6.553-61.943 6.541-18.823c1.74-5.007 5.551-8.874 10.27-10.784v29.608h-16.811zm-7.626-23.748-8.854 25.476c-12.613 4.32-21.709 16.285-21.709 30.343v13.188 9.185 22.259h-20v-263.771h75v141.865c-11.183 2.339-20.583 10.364-24.437 21.455zm45.937-22.176h-6.5v-141.144h75v141.144h-33.5c-4.143 0-7.5 3.357-7.5 7.5s3.357 7.5 7.5 7.5h33.5v8.771c-2.034-.528-4.167-.809-6.364-.809-13.174 0-24.03 10.099-25.242 22.962h-43.394v-30.924h6.5c4.143 0 7.5-3.357 7.5-7.5s-3.357-7.5-7.5-7.5zm115.791 47.652-8.854-25.477c-3.74-10.76-12.694-18.654-23.438-21.251v-142.068h75v33.271 230.5h-21v-22.259-9.185-13.188c.001-14.058-9.095-26.023-21.708-30.343zm-32.291 45.215v-31.943h21.928c9.414 0 17.072 7.658 17.072 17.071v14.872zm39 15v14.759h-16.636v-14.759zm-54-61.943h-16.431c1.086-4.558 5.182-7.962 10.067-7.962 2.4 0 4.606.828 6.364 2.203zm22.364 61.943v14.759h-7.364v-14.759zm-7.364-73.182v-17.921c4.253 2.031 7.654 5.689 9.27 10.335l6.541 18.824h-11.932c-.388-4.108-1.762-7.932-3.879-11.238zm-15 26.239v31.943h-75v-31.943zm0 46.943v14.759h-75v-14.759zm180-208.241v69h-19.5c-6.893 0-12.5 5.607-12.5 12.5v46c0 6.893 5.607 12.5 12.5 12.5h19.5v83h-75v-223zm-75-15v-25.771h75v25.771zm75 99v41h-17v-41zm32 0v41h-17v-41zm-400.5-139.77v-70.5c0-4.136 3.364-7.5 7.5-7.5h79.294l-1.568 4.556c-1.39 4.04-.738 8.528 1.743 12.007 2.481 3.478 6.514 5.554 10.785 5.554h266.474c5.653 0 10.688-3.592 12.528-8.937l4.536-13.18h93.208c4.136 0 7.5 3.364 7.5 7.5v70.5zm383.5 40.77v-25.771h75v25.771z"/><path d="m163.109 67.673c0 4.143 3.357 7.5 7.5 7.5h170.781c4.143 0 7.5-3.357 7.5-7.5s-3.357-7.5-7.5-7.5h-170.781c-4.142 0-7.5 3.357-7.5 7.5z"/><path d="m470 113.886h-43c-4.143 0-7.5 3.357-7.5 7.5s3.357 7.5 7.5 7.5h43c4.143 0 7.5-3.357 7.5-7.5s-3.357-7.5-7.5-7.5z"/></g></g></svg>