<svg id="Capa_1" enable-background="new 0 0 512 512" height="512" viewBox="0 0 512 512" width="512" xmlns="http://www.w3.org/2000/svg"><g><path d="m335.869 227.742-8.474-37.267c-.58-2.549-1.815-4.901-3.584-6.826-3.806-4.14-19.945-17.649-67.811-17.649s-64.005 13.509-67.811 17.65c-1.769 1.924-3.004 4.277-3.584 6.826l-8.474 37.266c-18.815 5.387-32.631 22.733-32.631 43.258v45c0 8.284 6.716 15 15 15v15c0 8.284 6.716 15 15 15s15-6.716 15-15v-15h135v15c0 8.284 6.716 15 15 15s15-6.716 15-15v-15c8.284 0 15-6.716 15-15v-45c0-20.524-13.814-37.87-32.631-43.258zm-162.369 73.258v-30c0-8.271 6.727-15 15-15h134.907c.027 0 .053.003.08.003.014 0 .027-.002.041-.002 8.258.012 14.973 6.735 14.973 14.999v30zm82.5-105c25.494 0 38.243 4.404 43.461 6.933l5.245 23.067h-97.412l5.245-23.067c5.218-2.529 17.967-6.933 43.461-6.933z"/><path d="m413.5 60h-45v-15c0-8.284-6.716-15-15-15h-47.57c-6.19-17.461-22.873-30-42.43-30s-36.239 12.539-42.43 30h-47.57c-8.284 0-15 6.716-15 15v15h-60c-8.284 0-15 6.716-15 15v422c0 8.284 6.716 15 15 15h315c8.284 0 15-6.716 15-15v-422c0-8.284-6.716-15-15-15zm-225 0h45c8.284 0 15-6.716 15-15 0-8.271 6.729-15 15-15s15 6.729 15 15c0 8.284 6.716 15 15 15h45v30h-150zm210 422h-285v-392h45v15c0 8.284 6.716 15 15 15h180c8.284 0 15-6.716 15-15v-15h30z"/><path d="m192.894 395.394-19.394 19.393-4.394-4.394c-5.857-5.858-15.355-5.858-21.213 0s-5.858 15.355 0 21.213l15 15c2.929 2.929 6.768 4.394 10.606 4.394s7.678-1.464 10.606-4.394l30-30c5.858-5.858 5.858-15.355 0-21.213-5.856-5.858-15.354-5.858-21.211.001z"/><path d="m353.5 421h-105c-8.284 0-15 6.716-15 15s6.716 15 15 15h105c8.284 0 15-6.716 15-15s-6.716-15-15-15z"/></g></svg>