<svg id="Capa_1" fill="white" enable-background="new 0 0 512 512" height="512" viewBox="0 0 512 512" width="512" xmlns="http://www.w3.org/2000/svg"><path d="m441.633 0h-231.933c-21.155 0-38.367 17.212-38.367 38.367v42.079h-101.003c-21.136 0-38.33 17.212-38.33 38.367v354.819c0 21.156 17.194 38.368 38.33 38.368h255.337c8.284 0 15-6.716 15-15v-65.446h100.967c21.155 0 38.367-17.212 38.367-38.367v-354.82c-.001-21.155-17.212-38.367-38.368-38.367zm-379.633 473.633v-354.82c0-4.613 3.737-8.367 8.33-8.367h101.004v306.107c0 5.651 3.126 10.573 7.742 13.13l90.611 52.317h-199.357c-4.593 0-8.33-3.754-8.33-8.367zm248.667-2.614-68.354-39.465h68.354zm139.333-77.832c0 4.613-3.753 8.367-8.367 8.367h-240.3v-363.187c0-4.613 3.753-8.367 8.367-8.367h231.933c4.613 0 8.367 3.754 8.367 8.367z"/><path d="m415 50h-178.667c-8.284 0-15 6.716-15 15v84.991c0 8.284 6.716 15 15 15h178.667c8.284 0 15-6.716 15-15v-84.991c0-8.284-6.716-15-15-15zm-15 84.991h-148.667v-54.991h148.667z"/><path d="m415 194.991h-178.667c-8.284 0-15 6.716-15 15s6.716 15 15 15h178.667c8.284 0 15-6.716 15-15s-6.716-15-15-15z"/><path d="m236.333 274.991h138.667c8.284 0 15-6.716 15-15s-6.716-15-15-15h-138.667c-8.284 0-15 6.716-15 15s6.716 15 15 15z"/><path d="m392.354 294.991h-156.021c-8.284 0-15 6.716-15 15s6.716 15 15 15h156.021c8.284 0 15-6.716 15-15s-6.715-15-15-15z"/><path d="m280.935 344.991h-44.602c-8.284 0-15 6.716-15 15s6.716 15 15 15h44.602c8.284 0 15-6.716 15-15s-6.716-15-15-15z"/></svg>